<?xml version="1.0" standalone="no"?><!DOCTYPE svg PUBLIC "-//W3C//DTD SVG 1.1//EN" "http://www.w3.org/Graphics/SVG/1.1/DTD/svg11.dtd"><svg t="1611730454866" class="icon" viewBox="0 0 1024 1024" version="1.1" xmlns="http://www.w3.org/2000/svg" p-id="2833" xmlns:xlink="http://www.w3.org/1999/xlink" width="200" height="200"><defs><style type="text/css"></style></defs><path d="M523.5 718.1c-29.2 0-52.9 23.7-52.9 52.9s23.7 52.9 52.9 52.9 52.9-23.7 52.9-52.9-23.7-52.9-52.9-52.9z m0 73.8c-11.5 0-20.9-9.4-20.9-20.9 0-11.5 9.4-20.9 20.9-20.9 11.5 0 20.9 9.4 20.9 20.9 0 11.5-9.4 20.9-20.9 20.9zM523.5 575.1c-29.2 0-52.9 23.7-52.9 52.9s23.7 52.9 52.9 52.9 52.9-23.7 52.9-52.9-23.7-52.9-52.9-52.9z m0 73.8c-11.5 0-20.9-9.4-20.9-20.9 0-11.5 9.4-20.9 20.9-20.9 11.5 0 20.9 9.4 20.9 20.9 0 11.5-9.4 20.9-20.9 20.9z" fill="#333333" p-id="2834"></path><path d="M565.9 287.8m-19.5 0a19.5 19.5 0 1 0 39 0 19.5 19.5 0 1 0-39 0Z" fill="#333333" p-id="2835"></path><path d="M478.9 287.8m-19.5 0a19.5 19.5 0 1 0 39 0 19.5 19.5 0 1 0-39 0Z" fill="#333333" p-id="2836"></path><path d="M490.3 343.2c-4.4-7.7-14.2-10.3-21.9-5.9-7.7 4.4-10.3 14.2-5.9 21.9 12.4 21.4 35.4 34.7 60.1 34.7 23.6 0 45.4-11.9 58.3-31.7 4.8-7.4 2.7-17.3-4.8-22.1s-17.3-2.7-22.1 4.8c-6.9 10.7-18.7 17.1-31.4 17.1-13.3-0.1-25.7-7.3-32.3-18.8z" fill="#333333" p-id="2837"></path><path d="M883.1 402.8h-55.2l-0.8-67.5c-0.1-8.8-7.3-15.9-16.2-15.8-8.8 0.1-15.9 7.4-15.8 16.2l0.9 76-108.1 95.9c-3.6-2.9-7.4-5.8-11.1-8.5 3.7-4.8 6-10.8 6-17.3v-51c0-14.7-11.4-26.8-25.8-27.9 16.3-24.9 25.8-54.5 25.8-86.4 0-67.6-42.7-125.5-102.6-148l10.3-6.7c7.4-4.8 9.5-14.7 4.7-22.1-4.8-7.4-14.7-9.5-22.1-4.7L550 150l-57.3-88.3c-4.1-6.3-10.3-10.6-17.7-12.1s-14.8-0.2-21.1 3.9l-141.6 91.8c-6.3 4.1-10.6 10.3-12.1 17.7s-0.2 14.8 3.9 21.1l57.2 88.2-15.3 9.9c-7.4 4.8-9.5 14.7-4.7 22.1 3.1 4.7 8.2 7.3 13.4 7.3 3 0 6-0.8 8.7-2.6l3.6-2.3c-0.2 3.3-0.3 6.6-0.3 9.9 0 31.9 9.5 61.6 25.8 86.4-14.4 1.1-25.8 13.2-25.8 27.9v51c0 7.4 2.9 14.1 7.5 19.1-3.8 2.8-7.5 5.7-11.1 8.7l-110.3-97.8 0.9-76c0.1-8.8-7-16.1-15.8-16.2-8.8-0.1-16.1 7-16.2 15.8l-0.8 67.5h-55.2c-8.8 0-16 7.2-16 16s7.2 16 16 16h64.9l109 96.7c-45.5 48-70.5 110.6-70.5 177 0 68.8 26.8 133.5 75.4 182.1S458 966 526.8 966s133.5-26.8 182.1-75.4 75.4-113.3 75.4-182.1c0-67.5-25.8-130.9-72.6-179.2l106.5-94.4h64.9c8.8 0 16-7.2 16-16s-7.1-16.1-16-16.1z m-484.3 75v-43H650.8v43h-252z m237.7 78.1c27.1 34 44.2 78.7 48.9 127.3h-37.9c-1.6-44.8-12.7-87.8-32.1-124.9-8.9-17.1-19.4-32.5-31.2-46 19.2 9.7 36.9 24.4 52.3 43.6z m-114-389.6l-134.9 87.5-4.6-7-49.9-76.9L468 82.4l49.4 76.2 5.1 7.7z m21.6 25.6c60.4 9.3 106.7 61.6 106.7 124.5 0 33.4-13.1 63.8-34.3 86.3H433.1c-21.3-22.6-34.3-53-34.3-86.3 0-11.5 1.6-22.7 4.5-33.3l140.8-91.2z m208.2 516.5c0 60.2-23.5 116.9-66.1 159.5C643.7 910.5 587 934 526.8 934s-116.9-23.5-159.5-66.1c-42.6-42.6-66.1-99.2-66.1-159.5s23.5-116.9 66.1-159.5c2.1-2.1 4.3-4.2 6.5-6.3l0.1-0.1c14-13 29.5-24 45.9-32.9h115.1c20.6 15.5 38.4 37 52.1 63.4 18.8 35.8 28.7 78 28.7 121.9v3.7l-0.2 16.5h103.7l-0.6-16.6c-3-76.2-32.8-142.7-77.3-184.6 10.1 6 19.8 12.8 29 20.3 0.6 2.5 1.8 5 3.6 7.1 2.7 3.1 6.4 4.8 10.1 5.3 0.8 0.8 1.6 1.5 2.3 2.3 42.6 42.7 66 99.3 66 159.5z" fill="#333333" p-id="2838"></path></svg>