<?xml version="1.0" standalone="no"?><!DOCTYPE svg PUBLIC "-//W3C//DTD SVG 1.1//EN" "http://www.w3.org/Graphics/SVG/1.1/DTD/svg11.dtd"><svg t="1638070384542" class="icon" viewBox="0 0 1024 1024" version="1.1" xmlns="http://www.w3.org/2000/svg" p-id="4566" xmlns:xlink="http://www.w3.org/1999/xlink" width="200" height="200"><defs><style type="text/css"></style></defs><path d="M908.4 488.6c-52.8-5-91.6-52.4-91.6-105.4v4.4c0 70-70.8 123.4-144.6 92.8-36.2-15-58.6-52-58.6-91.2v-1.6c0 59.4-51 106.8-111.6 101-52.8-5-91.6-52.4-91.6-105.4v4.4c0 70-70.8 123.4-144.6 92.8-36.2-15-58.6-52-58.6-91.2v-28.2 26.6c0 59.4-51 106.8-111.6 101.2-4.4-0.4-8.4-1.6-12.6-2.6v534H936V487.4c-8.8 1.6-18 2-27.6 1.2z" fill="#FFD15C" p-id="4567"></path><path d="M83 4h857.2v113.2H83z" fill="#CDD6E0" p-id="4568"></path><path d="M83 117.2L4 303.2h203.2l47.4-186z" fill="#F2F2F2" p-id="4569"></path><path d="M254.6 117.2l-47.4 186h203.2l15.8-186z" fill="#FF7058" p-id="4570"></path><path d="M597.8 117.2h-171.6l-15.8 186h203.2z" fill="#F2F2F2" p-id="4571"></path><path d="M769.4 117.2h-171.6l15.8 186h203.2z" fill="#FF7058" p-id="4572"></path><path d="M941 117.2h-171.6l47.4 186H1020z" fill="#F2F2F2" p-id="4573"></path><path d="M737 618h-16.6c-69.6 0-125.8 56.4-125.8 125.8v276h268.4V744c0-69.6-56.4-126-126-126zM156 714.6h340.6v209H156z" fill="#FFFFFF" p-id="4574"></path><path d="M178.6 737.2H474v163.8H178.6z" fill="#84DBFF" p-id="4575"></path><path d="M83 381.2v126.4c7.2 2 14.8 2.8 22.6 2.8 28 0 53.4-11.4 71.8-29.8s29.8-43.8 29.8-71.8c0 56 45.6 101.6 101.6 101.6 56 0 101.6-45.6 101.6-101.6 0 56 45.6 101.6 101.6 101.6 56 0 101.6-45.6 101.6-101.6 0 56 45.6 101.6 101.6 101.6 56 0 101.6-45.6 101.6-101.6 0 56 45.6 101.6 101.6 101.6 6 0 11.8-0.6 17.6-1.6v-127.4H83z" fill="#F8B64C" p-id="4576"></path><path d="M613.6 303.2v85.8c0 39.2 22.4 76.2 58.6 91.2 73.8 30.8 144.6-22.8 144.6-92.8v-84.2H613.6zM207.2 303.2v85.8c0 39.2 22.4 76.2 58.6 91.2 73.8 30.8 144.6-22.8 144.6-92.8v-84.2H207.2z" fill="#F1543F" p-id="4577"></path><path d="M816.8 303.2v80c0 53 38.8 100.4 91.6 105.4 60.6 5.8 111.6-41.8 111.6-101.2v-84.2H816.8zM410.4 383c0 53 38.8 100.4 91.6 105.4 60.6 5.8 111.6-41.8 111.6-101.2v-84.2H410.4v80zM4 383c0 53 38.8 100.4 91.6 105.4 60.6 5.8 111.6-41.8 111.6-101.2v-84.2H4v80z" fill="#CDD6E0" p-id="4578"></path></svg>